<?xml version="1.0" encoding="UTF-8" standalone="no" ?>
<!DOCTYPE svg PUBLIC "-//W3C//DTD SVG 1.1//EN" "http://www.w3.org/Graphics/SVG/1.1/DTD/svg11.dtd">
<svg xmlns="http://www.w3.org/2000/svg" xmlns:xlink="http://www.w3.org/1999/xlink" version="1.1" width="400" height="400" viewBox="0 0 400 400" xml:space="preserve">
<desc>Created with Fabric.js 3.6.2</desc>
<defs>
</defs>
<g transform="matrix(3.53 0 0 3.53 199.12 205.82)" id="Layer_1"  >
<circle style="stroke: none; stroke-width: 1; stroke-dasharray: none; stroke-linecap: butt; stroke-dashoffset: 0; stroke-linejoin: miter; stroke-miterlimit: 4; fill: rgb(0,0,0); fill-rule: nonzero; opacity: 1;"  cx="0" cy="0" r="4.4" />
</g>
<g transform="matrix(3.53 0 0 3.53 199.29 206)" id="Layer_1"  >
<path style="stroke: none; stroke-width: 1; stroke-dasharray: none; stroke-linecap: butt; stroke-dashoffset: 0; stroke-linejoin: miter; stroke-miterlimit: 4; fill: rgb(0,0,0); fill-rule: nonzero; opacity: 1;"  transform=" translate(-28.15, -30.05)" d="M 33.6 19.2 h -11 c -1.6 0 -3 0.5 -3.9 1.4 c -0.9 0.9 -1.4 2.3 -1.4 3.9 v 11 c 0 1.6 0.5 3 1.5 4 c 1 0.9 2.3 1.4 3.9 1.4 h 10.9 c 1.6 0 3 -0.5 3.9 -1.4 c 1 -0.9 1.5 -2.3 1.5 -3.9 v -11 c 0 -1.6 -0.5 -2.9 -1.4 -3.9 C 36.6 19.7 35.3 19.2 33.6 19.2 z M 28.1 36.8 c -3.8 0 -6.8 -3.1 -6.8 -6.8 c 0 -3.8 3.1 -6.8 6.8 -6.8 S 35 26.2 35 30 C 35 33.8 31.9 36.8 28.1 36.8 z M 35.2 24.5 c -0.9 0 -1.6 -0.7 -1.6 -1.6 s 0.7 -1.6 1.6 -1.6 s 1.6 0.7 1.6 1.6 S 36.1 24.5 35.2 24.5 z" stroke-linecap="round" />
</g>
<g transform="matrix(3.53 0 0 3.53 199.82 205.11)" id="Layer_1"  >
<path style="stroke: none; stroke-width: 1; stroke-dasharray: none; stroke-linecap: butt; stroke-dashoffset: 0; stroke-linejoin: miter; stroke-miterlimit: 4; fill: rgb(0,0,0); fill-rule: nonzero; opacity: 1;"  transform=" translate(-28.3, -29.8)" d="M 28.3 5.2 c -13.6 0 -24.6 11 -24.6 24.6 c 0 13.6 11 24.6 24.6 24.6 c 13.6 0 24.6 -11 24.6 -24.6 C 53 16.2 41.9 5.2 28.3 5.2 z M 41.4 35.6 c 0 2.3 -0.8 4.3 -2.2 5.7 c -1.4 1.4 -3.4 2.1 -5.6 2.1 H 22.7 c -2.2 0 -4.2 -0.7 -5.6 -2.1 c -1.5 -1.4 -2.2 -3.4 -2.2 -5.7 v -11 c 0 -4.6 3.1 -7.8 7.8 -7.8 h 11 c 2.3 0 4.2 0.8 5.6 2.2 c 1.4 1.4 2.1 3.3 2.1 5.6 V 35.6 z" stroke-linecap="round" />
</g>
</svg>