<?xml version="1.0" ?><svg style="enable-background:new 0 0 48 48;" version="1.1" viewBox="0 0 48 48" xml:space="preserve" xmlns="http://www.w3.org/2000/svg" xmlns:xlink="http://www.w3.org/1999/xlink"><g id="Icons"><g><path d="M39.34591,24.00477c0,8.46997-6.87,15.33997-15.34998,15.33997    c-1.39001,0-2.74005-0.19-4.02002-0.52997c1.17999-2.12006,2.02997-6.64001,2.59998-8.58002    c0.02002-0.01001,0.02002-0.01001,0.04004-0.01001c0.96997,1.25,2.27997,1.63,3.77997,1.46997    c2.26001-0.22998,3.88-1.44995,4.98999-3.37c1.12-1.91998,1.52002-4.01996,1.30005-6.19995    c-0.24005-2.29004-1.45001-4.05005-3.37006-5.29004c-1.71997-1.11999-3.63995-1.45996-5.64996-1.32001    c-1.54999,0.11005-3.01001,0.49005-4.35004,1.30005c-2.22998,1.33997-3.60999,3.27997-3.98999,5.87    c-0.19995,1.38-0.01001,2.72998,0.64001,3.98999c0.41003,0.78998,1.01001,1.39001,1.83002,1.76001    c0.20996,0.09998,0.5,0.17999,0.66998-0.05005c0.06-0.07996,0.09998-0.19,0.13-0.28998    c0.25-0.78998,0.34998-1.45001-0.21002-2.14001c-0.57001-0.69-0.62-1.58997-0.56-2.45996    c0.16003-2.07001,1.07001-3.72003,2.85004-4.83002c1.32996-0.84003,2.79999-1.08002,4.33997-0.89001    c0.63,0.08002,1.27002,0.23004,1.84003,0.48004c1.60999,0.70996,2.48999,2.01996,2.64996,3.75    c0.16003,1.75-0.12,3.45996-0.88995,5.06995c-0.32001,0.68005-0.77002,1.30005-1.36005,1.76001    c-0.71997,0.54999-1.50995,0.79999-2.41998,0.54999c-1.03998-0.26996-1.64996-1.35999-1.38-2.40997    c0.26001-1.04999,0.62-2.08002,0.88-3.13c0.13-0.54999,0.22998-1.13,0.20001-1.69c-0.07001-1.37-1.34998-2.07001-2.59003-1.46002    c-0.88,0.43005-1.31,1.20001-1.52997,2.11005c-0.22998,0.96997-0.12,1.91998,0.20001,2.85999    c0.04999,0.14001,0.07001,0.29999,0.02997,0.45001c-0.20996,0.89996-0.41998,1.78998-0.63,2.69    c-0.26001,1.09998-0.52997,2.20001-0.78998,3.29999c-0.22998,1-0.47003,2.01001-0.70001,3.02002    c-0.22998,1.00995-0.31,2.01996-0.39996,3.04999c-5.56006-2.29999-9.47003-7.78003-9.47003-14.16998    c0-8.48004,6.87-15.35004,15.34003-15.35004C32.47591,8.65473,39.34591,15.52473,39.34591,24.00477z" style="fill:#E52046;"/><path d="    M19.975,38.815c1.28,0.34,2.63,0.53,4.02,0.53c8.48,0,15.35-6.87,15.35-15.34c0-8.48-6.87-15.35-15.35-15.35    c-8.47,0-15.34,6.87-15.34,15.35c0,6.39,3.91,11.87,9.47,14.17" style="fill:none;stroke:#303030;stroke-width:0.7;stroke-linecap:round;stroke-linejoin:round;stroke-miterlimit:10;"/><path d="    M21.89437,11.42093c0.53679-0.09549,1.07644-0.1576,1.61342-0.18429" style="fill:none;stroke:#303030;stroke-width:0.7;stroke-linecap:round;stroke-linejoin:round;stroke-miterlimit:10;"/><path d="    M15.4695,14.42807c1.44125-1.2413,3.22635-2.17318,5.10565-2.70387" style="fill:none;stroke:#303030;stroke-width:0.7;stroke-linecap:round;stroke-linejoin:round;stroke-miterlimit:10;"/><path d="    M19.975,38.815c1.18-2.12,2.03-6.64,2.6-8.58c0.02-0.01,0.02-0.01,0.04-0.01c0.97,1.25,2.28,1.63,3.78,1.47    c2.26-0.23,3.88-1.45,4.99-3.37c1.12-1.92,1.52-4.02,1.3-6.2c-0.24-2.29-1.45-4.05-3.37-5.29c-1.72-1.12-3.64-1.46-5.65-1.32    c-1.55,0.11-3.01,0.49-4.35,1.3c-2.23,1.34-3.61,3.28-3.99,5.87c-0.2,1.38-0.01,2.73,0.64,3.99    c0.41,0.79,1.01,1.39,1.83007,1.76003c0.2151,0.10037,0.49967,0.17663,0.66786-0.04591    c0.06513-0.08618,0.09903-0.19131,0.13182-0.29424c0.2524-0.79243,0.35379-1.44631-0.20975-2.13989    c-0.57-0.69-0.62-1.59-0.56-2.46c0.16-2.07,1.07-3.72,2.85-4.83c1.33-0.84,2.8-1.08,4.34-0.89c0.63,0.08,1.27,0.23,1.84,0.48    c1.61,0.71,2.49,2.02,2.65,3.75c0.16,1.75-0.12,3.46-0.89,5.07c-0.32,0.68-0.77,1.3-1.36,1.76c-0.72,0.55-1.51,0.8-2.42,0.55    c-1.04-0.27-1.65-1.36-1.38-2.41c0.26-1.05,0.62-2.08,0.88-3.13c0.13-0.55,0.23-1.13,0.2-1.69c-0.07-1.37-1.35-2.07-2.59-1.46    c-0.88,0.43-1.31,1.2-1.53,2.11c-0.23,0.97-0.12,1.92,0.2,2.86c0.05,0.14,0.07,0.3,0.03,0.45    c-0.20673,0.89585-0.41942,1.79032-0.63169,2.68487c-0.26104,1.10007-0.52293,2.19993-0.78308,3.30021    c-0.2382,1.00745-0.4757,2.01508-0.70658,3.02424c-0.23132,1.01111-0.31039,2.021-0.39865,3.05069" style="fill:none;stroke:#303030;stroke-width:0.7;stroke-linecap:round;stroke-linejoin:round;stroke-miterlimit:10;"/></g></g></svg>